<?xml version="1.0" encoding="utf-8" standalone="no"?>
<!DOCTYPE svg PUBLIC "-//W3C//DTD SVG 1.1//EN"
  "http://www.w3.org/Graphics/SVG/1.1/DTD/svg11.dtd">
<svg xmlns:xlink="http://www.w3.org/1999/xlink" width="473.34125pt" height="241.281875pt" viewBox="0 0 473.34125 241.281875" xmlns="http://www.w3.org/2000/svg" version="1.1">
 <metadata>
  <rdf:RDF xmlns:dc="http://purl.org/dc/elements/1.1/" xmlns:cc="http://creativecommons.org/ns#" xmlns:rdf="http://www.w3.org/1999/02/22-rdf-syntax-ns#">
   <cc:Work>
    <dc:type rdf:resource="http://purl.org/dc/dcmitype/StillImage"/>
    <dc:date>2026-05-31T02:34:41.186035</dc:date>
    <dc:format>image/svg+xml</dc:format>
    <dc:creator>
     <cc:Agent>
      <dc:title>Matplotlib v3.10.9, https://matplotlib.org/</dc:title>
     </cc:Agent>
    </dc:creator>
   </cc:Work>
  </rdf:RDF>
 </metadata>
 <defs>
  <style type="text/css">*{stroke-linejoin: round; stroke-linecap: butt}</style>
 </defs>
 <g id="figure_1">
  <g id="patch_1">
   <path d="M 0 241.281875 
L 473.34125 241.281875 
L 473.34125 0 
L 0 0 
z
" style="fill: #ffffff"/>
  </g>
  <g id="axes_1">
   <g id="patch_2">
    <path d="M 67.98125 210.919687 
L 235.38125 210.919687 
L 235.38125 16.879687 
L 67.98125 16.879687 
z
" style="fill: #ffffff"/>
   </g>
   <g id="patch_3">
    <path d="M 67.98125 202.099687 
L 69.564978 202.099687 
L 69.564978 190.140365 
L 67.98125 190.140365 
z
" clip-path="url(#pb9d109b4f9)" style="fill: #56b4e9; opacity: 0.9; stroke: #000000; stroke-width: 0.4; stroke-linejoin: miter"/>
   </g>
   <g id="patch_4">
    <path d="M 67.98125 187.150535 
L 70.092887 187.150535 
L 70.092887 175.191213 
L 67.98125 175.191213 
z
" clip-path="url(#pb9d109b4f9)" style="fill: #56b4e9; opacity: 0.9; stroke: #000000; stroke-width: 0.4; stroke-linejoin: miter"/>
   </g>
   <g id="patch_5">
    <path d="M 67.98125 172.201382 
L 70.092887 172.201382 
L 70.092887 160.24206 
L 67.98125 160.24206 
z
" clip-path="url(#pb9d109b4f9)" style="fill: #56b4e9; opacity: 0.9; stroke: #000000; stroke-width: 0.4; stroke-linejoin: miter"/>
   </g>
   <g id="patch_6">
    <path d="M 67.98125 157.25223 
L 70.092887 157.25223 
L 70.092887 145.292908 
L 67.98125 145.292908 
z
" clip-path="url(#pb9d109b4f9)" style="fill: #56b4e9; opacity: 0.9; stroke: #000000; stroke-width: 0.4; stroke-linejoin: miter"/>
   </g>
   <g id="patch_7">
    <path d="M 67.98125 142.303077 
L 70.620796 142.303077 
L 70.620796 130.343755 
L 67.98125 130.343755 
z
" clip-path="url(#pb9d109b4f9)" style="fill: #56b4e9; opacity: 0.9; stroke: #000000; stroke-width: 0.4; stroke-linejoin: miter"/>
   </g>
   <g id="patch_8">
    <path d="M 67.98125 127.353925 
L 70.88475 127.353925 
L 70.88475 115.394603 
L 67.98125 115.394603 
z
" clip-path="url(#pb9d109b4f9)" style="fill: #56b4e9; opacity: 0.9; stroke: #000000; stroke-width: 0.4; stroke-linejoin: miter"/>
   </g>
   <g id="patch_9">
    <path d="M 67.98125 112.404772 
L 71.676614 112.404772 
L 71.676614 100.44545 
L 67.98125 100.44545 
z
" clip-path="url(#pb9d109b4f9)" style="fill: #56b4e9; opacity: 0.9; stroke: #000000; stroke-width: 0.4; stroke-linejoin: miter"/>
   </g>
   <g id="patch_10">
    <path d="M 67.98125 97.45562 
L 73.524296 97.45562 
L 73.524296 85.496298 
L 67.98125 85.496298 
z
" clip-path="url(#pb9d109b4f9)" style="fill: #56b4e9; opacity: 0.9; stroke: #000000; stroke-width: 0.4; stroke-linejoin: miter"/>
   </g>
   <g id="patch_11">
    <path d="M 67.98125 82.506467 
L 73.788251 82.506467 
L 73.788251 70.547145 
L 67.98125 70.547145 
z
" clip-path="url(#pb9d109b4f9)" style="fill: #56b4e9; opacity: 0.9; stroke: #000000; stroke-width: 0.4; stroke-linejoin: miter"/>
   </g>
   <g id="patch_12">
    <path d="M 67.98125 67.557315 
L 75.108024 67.557315 
L 75.108024 55.597993 
L 67.98125 55.597993 
z
" clip-path="url(#pb9d109b4f9)" style="fill: #56b4e9; opacity: 0.9; stroke: #000000; stroke-width: 0.4; stroke-linejoin: miter"/>
   </g>
   <g id="patch_13">
    <path d="M 67.98125 52.608162 
L 87.51389 52.608162 
L 87.51389 40.64884 
L 67.98125 40.64884 
z
" clip-path="url(#pb9d109b4f9)" style="fill: #56b4e9; opacity: 0.9; stroke: #000000; stroke-width: 0.4; stroke-linejoin: miter"/>
   </g>
   <g id="patch_14">
    <path d="M 67.98125 37.65901 
L 227.409821 37.65901 
L 227.409821 25.699687 
L 67.98125 25.699687 
z
" clip-path="url(#pb9d109b4f9)" style="fill: #0072b2; opacity: 0.9; stroke: #000000; stroke-width: 0.4; stroke-linejoin: miter"/>
   </g>
   <g id="matplotlib.axis_1">
    <g id="xtick_1">
     <g id="line2d_1">
      <defs>
       <path id="m843ef558c6" d="M 0 0 
L 0 3.5 
" style="stroke: #000000; stroke-width: 0.8"/>
      </defs>
      <g>
       <use xlink:href="#m843ef558c6" x="67.98125" y="210.919687" style="stroke: #000000; stroke-width: 0.8"/>
      </g>
     </g>
     <g id="text_1">
      <!-- 0 -->
      <g transform="translate(65.756875 223.645937) scale(0.08 -0.08)">
       <defs>
        <path id="ArialMT-30" d="M 266 2259 
Q 266 3072 433 3567 
Q 600 4063 929 4331 
Q 1259 4600 1759 4600 
Q 2128 4600 2406 4451 
Q 2684 4303 2865 4023 
Q 3047 3744 3150 3342 
Q 3253 2941 3253 2259 
Q 3253 1453 3087 958 
Q 2922 463 2592 192 
Q 2263 -78 1759 -78 
Q 1097 -78 719 397 
Q 266 969 266 2259 
z
M 844 2259 
Q 844 1131 1108 757 
Q 1372 384 1759 384 
Q 2147 384 2411 759 
Q 2675 1134 2675 2259 
Q 2675 3391 2411 3762 
Q 2147 4134 1753 4134 
Q 1366 4134 1134 3806 
Q 844 3388 844 2259 
z
" transform="scale(0.015625)"/>
       </defs>
       <use xlink:href="#ArialMT-30"/>
      </g>
     </g>
    </g>
    <g id="xtick_2">
     <g id="line2d_2">
      <g>
       <use xlink:href="#m843ef558c6" x="120.772168" y="210.919687" style="stroke: #000000; stroke-width: 0.8"/>
      </g>
     </g>
     <g id="text_2">
      <!-- 200 -->
      <g transform="translate(114.099043 223.645937) scale(0.08 -0.08)">
       <defs>
        <path id="ArialMT-32" d="M 3222 541 
L 3222 0 
L 194 0 
Q 188 203 259 391 
Q 375 700 629 1000 
Q 884 1300 1366 1694 
Q 2113 2306 2375 2664 
Q 2638 3022 2638 3341 
Q 2638 3675 2398 3904 
Q 2159 4134 1775 4134 
Q 1369 4134 1125 3890 
Q 881 3647 878 3216 
L 300 3275 
Q 359 3922 746 4261 
Q 1134 4600 1788 4600 
Q 2447 4600 2831 4234 
Q 3216 3869 3216 3328 
Q 3216 3053 3103 2787 
Q 2991 2522 2730 2228 
Q 2469 1934 1863 1422 
Q 1356 997 1212 845 
Q 1069 694 975 541 
L 3222 541 
z
" transform="scale(0.015625)"/>
       </defs>
       <use xlink:href="#ArialMT-32"/>
       <use xlink:href="#ArialMT-30" transform="translate(55.615234 0)"/>
       <use xlink:href="#ArialMT-30" transform="translate(111.230469 0)"/>
      </g>
     </g>
    </g>
    <g id="xtick_3">
     <g id="line2d_3">
      <g>
       <use xlink:href="#m843ef558c6" x="173.563085" y="210.919687" style="stroke: #000000; stroke-width: 0.8"/>
      </g>
     </g>
     <g id="text_3">
      <!-- 400 -->
      <g transform="translate(166.88996 223.645937) scale(0.08 -0.08)">
       <defs>
        <path id="ArialMT-34" d="M 2069 0 
L 2069 1097 
L 81 1097 
L 81 1613 
L 2172 4581 
L 2631 4581 
L 2631 1613 
L 3250 1613 
L 3250 1097 
L 2631 1097 
L 2631 0 
L 2069 0 
z
M 2069 1613 
L 2069 3678 
L 634 1613 
L 2069 1613 
z
" transform="scale(0.015625)"/>
       </defs>
       <use xlink:href="#ArialMT-34"/>
       <use xlink:href="#ArialMT-30" transform="translate(55.615234 0)"/>
       <use xlink:href="#ArialMT-30" transform="translate(111.230469 0)"/>
      </g>
     </g>
    </g>
    <g id="xtick_4">
     <g id="line2d_4">
      <g>
       <use xlink:href="#m843ef558c6" x="226.354003" y="210.919687" style="stroke: #000000; stroke-width: 0.8"/>
      </g>
     </g>
     <g id="text_4">
      <!-- 600 -->
      <g transform="translate(219.680878 223.645937) scale(0.08 -0.08)">
       <defs>
        <path id="ArialMT-36" d="M 3184 3459 
L 2625 3416 
Q 2550 3747 2413 3897 
Q 2184 4138 1850 4138 
Q 1581 4138 1378 3988 
Q 1113 3794 959 3422 
Q 806 3050 800 2363 
Q 1003 2672 1297 2822 
Q 1591 2972 1913 2972 
Q 2475 2972 2870 2558 
Q 3266 2144 3266 1488 
Q 3266 1056 3080 686 
Q 2894 316 2569 119 
Q 2244 -78 1831 -78 
Q 1128 -78 684 439 
Q 241 956 241 2144 
Q 241 3472 731 4075 
Q 1159 4600 1884 4600 
Q 2425 4600 2770 4297 
Q 3116 3994 3184 3459 
z
M 888 1484 
Q 888 1194 1011 928 
Q 1134 663 1356 523 
Q 1578 384 1822 384 
Q 2178 384 2434 671 
Q 2691 959 2691 1453 
Q 2691 1928 2437 2201 
Q 2184 2475 1800 2475 
Q 1419 2475 1153 2201 
Q 888 1928 888 1484 
z
" transform="scale(0.015625)"/>
       </defs>
       <use xlink:href="#ArialMT-36"/>
       <use xlink:href="#ArialMT-30" transform="translate(55.615234 0)"/>
       <use xlink:href="#ArialMT-30" transform="translate(111.230469 0)"/>
      </g>
     </g>
    </g>
    <g id="text_5">
     <!-- Number of experiments -->
     <g transform="translate(104.915703 235.787656) scale(0.09 -0.09)">
      <defs>
       <path id="ArialMT-4e" d="M 488 0 
L 488 4581 
L 1109 4581 
L 3516 984 
L 3516 4581 
L 4097 4581 
L 4097 0 
L 3475 0 
L 1069 3600 
L 1069 0 
L 488 0 
z
" transform="scale(0.015625)"/>
       <path id="ArialMT-75" d="M 2597 0 
L 2597 488 
Q 2209 -75 1544 -75 
Q 1250 -75 995 37 
Q 741 150 617 320 
Q 494 491 444 738 
Q 409 903 409 1263 
L 409 3319 
L 972 3319 
L 972 1478 
Q 972 1038 1006 884 
Q 1059 663 1231 536 
Q 1403 409 1656 409 
Q 1909 409 2131 539 
Q 2353 669 2445 892 
Q 2538 1116 2538 1541 
L 2538 3319 
L 3100 3319 
L 3100 0 
L 2597 0 
z
" transform="scale(0.015625)"/>
       <path id="ArialMT-6d" d="M 422 0 
L 422 3319 
L 925 3319 
L 925 2853 
Q 1081 3097 1340 3245 
Q 1600 3394 1931 3394 
Q 2300 3394 2536 3241 
Q 2772 3088 2869 2813 
Q 3263 3394 3894 3394 
Q 4388 3394 4653 3120 
Q 4919 2847 4919 2278 
L 4919 0 
L 4359 0 
L 4359 2091 
Q 4359 2428 4304 2576 
Q 4250 2725 4106 2815 
Q 3963 2906 3769 2906 
Q 3419 2906 3187 2673 
Q 2956 2441 2956 1928 
L 2956 0 
L 2394 0 
L 2394 2156 
Q 2394 2531 2256 2718 
Q 2119 2906 1806 2906 
Q 1569 2906 1367 2781 
Q 1166 2656 1075 2415 
Q 984 2175 984 1722 
L 984 0 
L 422 0 
z
" transform="scale(0.015625)"/>
       <path id="ArialMT-62" d="M 941 0 
L 419 0 
L 419 4581 
L 981 4581 
L 981 2947 
Q 1338 3394 1891 3394 
Q 2197 3394 2470 3270 
Q 2744 3147 2920 2923 
Q 3097 2700 3197 2384 
Q 3297 2069 3297 1709 
Q 3297 856 2875 390 
Q 2453 -75 1863 -75 
Q 1275 -75 941 416 
L 941 0 
z
M 934 1684 
Q 934 1088 1097 822 
Q 1363 388 1816 388 
Q 2184 388 2453 708 
Q 2722 1028 2722 1663 
Q 2722 2313 2464 2622 
Q 2206 2931 1841 2931 
Q 1472 2931 1203 2611 
Q 934 2291 934 1684 
z
" transform="scale(0.015625)"/>
       <path id="ArialMT-65" d="M 2694 1069 
L 3275 997 
Q 3138 488 2766 206 
Q 2394 -75 1816 -75 
Q 1088 -75 661 373 
Q 234 822 234 1631 
Q 234 2469 665 2931 
Q 1097 3394 1784 3394 
Q 2450 3394 2872 2941 
Q 3294 2488 3294 1666 
Q 3294 1616 3291 1516 
L 816 1516 
Q 847 969 1125 678 
Q 1403 388 1819 388 
Q 2128 388 2347 550 
Q 2566 713 2694 1069 
z
M 847 1978 
L 2700 1978 
Q 2663 2397 2488 2606 
Q 2219 2931 1791 2931 
Q 1403 2931 1139 2672 
Q 875 2413 847 1978 
z
" transform="scale(0.015625)"/>
       <path id="ArialMT-72" d="M 416 0 
L 416 3319 
L 922 3319 
L 922 2816 
Q 1116 3169 1280 3281 
Q 1444 3394 1641 3394 
Q 1925 3394 2219 3213 
L 2025 2691 
Q 1819 2813 1613 2813 
Q 1428 2813 1281 2702 
Q 1134 2591 1072 2394 
Q 978 2094 978 1738 
L 978 0 
L 416 0 
z
" transform="scale(0.015625)"/>
       <path id="ArialMT-20" transform="scale(0.015625)"/>
       <path id="ArialMT-6f" d="M 213 1659 
Q 213 2581 725 3025 
Q 1153 3394 1769 3394 
Q 2453 3394 2887 2945 
Q 3322 2497 3322 1706 
Q 3322 1066 3130 698 
Q 2938 331 2570 128 
Q 2203 -75 1769 -75 
Q 1072 -75 642 372 
Q 213 819 213 1659 
z
M 791 1659 
Q 791 1022 1069 705 
Q 1347 388 1769 388 
Q 2188 388 2466 706 
Q 2744 1025 2744 1678 
Q 2744 2294 2464 2611 
Q 2184 2928 1769 2928 
Q 1347 2928 1069 2612 
Q 791 2297 791 1659 
z
" transform="scale(0.015625)"/>
       <path id="ArialMT-66" d="M 556 0 
L 556 2881 
L 59 2881 
L 59 3319 
L 556 3319 
L 556 3672 
Q 556 4006 616 4169 
Q 697 4388 901 4523 
Q 1106 4659 1475 4659 
Q 1713 4659 2000 4603 
L 1916 4113 
Q 1741 4144 1584 4144 
Q 1328 4144 1222 4034 
Q 1116 3925 1116 3625 
L 1116 3319 
L 1763 3319 
L 1763 2881 
L 1116 2881 
L 1116 0 
L 556 0 
z
" transform="scale(0.015625)"/>
       <path id="ArialMT-78" d="M 47 0 
L 1259 1725 
L 138 3319 
L 841 3319 
L 1350 2541 
Q 1494 2319 1581 2169 
Q 1719 2375 1834 2534 
L 2394 3319 
L 3066 3319 
L 1919 1756 
L 3153 0 
L 2463 0 
L 1781 1031 
L 1600 1309 
L 728 0 
L 47 0 
z
" transform="scale(0.015625)"/>
       <path id="ArialMT-70" d="M 422 -1272 
L 422 3319 
L 934 3319 
L 934 2888 
Q 1116 3141 1344 3267 
Q 1572 3394 1897 3394 
Q 2322 3394 2647 3175 
Q 2972 2956 3137 2557 
Q 3303 2159 3303 1684 
Q 3303 1175 3120 767 
Q 2938 359 2589 142 
Q 2241 -75 1856 -75 
Q 1575 -75 1351 44 
Q 1128 163 984 344 
L 984 -1272 
L 422 -1272 
z
M 931 1641 
Q 931 1000 1190 694 
Q 1450 388 1819 388 
Q 2194 388 2461 705 
Q 2728 1022 2728 1688 
Q 2728 2322 2467 2637 
Q 2206 2953 1844 2953 
Q 1484 2953 1207 2617 
Q 931 2281 931 1641 
z
" transform="scale(0.015625)"/>
       <path id="ArialMT-69" d="M 425 3934 
L 425 4581 
L 988 4581 
L 988 3934 
L 425 3934 
z
M 425 0 
L 425 3319 
L 988 3319 
L 988 0 
L 425 0 
z
" transform="scale(0.015625)"/>
       <path id="ArialMT-6e" d="M 422 0 
L 422 3319 
L 928 3319 
L 928 2847 
Q 1294 3394 1984 3394 
Q 2284 3394 2536 3286 
Q 2788 3178 2913 3003 
Q 3038 2828 3088 2588 
Q 3119 2431 3119 2041 
L 3119 0 
L 2556 0 
L 2556 2019 
Q 2556 2363 2490 2533 
Q 2425 2703 2258 2804 
Q 2091 2906 1866 2906 
Q 1506 2906 1245 2678 
Q 984 2450 984 1813 
L 984 0 
L 422 0 
z
" transform="scale(0.015625)"/>
       <path id="ArialMT-74" d="M 1650 503 
L 1731 6 
Q 1494 -44 1306 -44 
Q 1000 -44 831 53 
Q 663 150 594 308 
Q 525 466 525 972 
L 525 2881 
L 113 2881 
L 113 3319 
L 525 3319 
L 525 4141 
L 1084 4478 
L 1084 3319 
L 1650 3319 
L 1650 2881 
L 1084 2881 
L 1084 941 
Q 1084 700 1114 631 
Q 1144 563 1211 522 
Q 1278 481 1403 481 
Q 1497 481 1650 503 
z
" transform="scale(0.015625)"/>
       <path id="ArialMT-73" d="M 197 991 
L 753 1078 
Q 800 744 1014 566 
Q 1228 388 1613 388 
Q 2000 388 2187 545 
Q 2375 703 2375 916 
Q 2375 1106 2209 1216 
Q 2094 1291 1634 1406 
Q 1016 1563 777 1677 
Q 538 1791 414 1992 
Q 291 2194 291 2438 
Q 291 2659 392 2848 
Q 494 3038 669 3163 
Q 800 3259 1026 3326 
Q 1253 3394 1513 3394 
Q 1903 3394 2198 3281 
Q 2494 3169 2634 2976 
Q 2775 2784 2828 2463 
L 2278 2388 
Q 2241 2644 2061 2787 
Q 1881 2931 1553 2931 
Q 1166 2931 1000 2803 
Q 834 2675 834 2503 
Q 834 2394 903 2306 
Q 972 2216 1119 2156 
Q 1203 2125 1616 2013 
Q 2213 1853 2448 1751 
Q 2684 1650 2818 1456 
Q 2953 1263 2953 975 
Q 2953 694 2789 445 
Q 2625 197 2315 61 
Q 2006 -75 1616 -75 
Q 969 -75 630 194 
Q 291 463 197 991 
z
" transform="scale(0.015625)"/>
      </defs>
      <use xlink:href="#ArialMT-4e"/>
      <use xlink:href="#ArialMT-75" transform="translate(72.216797 0)"/>
      <use xlink:href="#ArialMT-6d" transform="translate(127.832031 0)"/>
      <use xlink:href="#ArialMT-62" transform="translate(211.132812 0)"/>
      <use xlink:href="#ArialMT-65" transform="translate(266.748047 0)"/>
      <use xlink:href="#ArialMT-72" transform="translate(322.363281 0)"/>
      <use xlink:href="#ArialMT-20" transform="translate(355.664062 0)"/>
      <use xlink:href="#ArialMT-6f" transform="translate(383.447266 0)"/>
      <use xlink:href="#ArialMT-66" transform="translate(439.0625 0)"/>
      <use xlink:href="#ArialMT-20" transform="translate(466.845703 0)"/>
      <use xlink:href="#ArialMT-65" transform="translate(494.628906 0)"/>
      <use xlink:href="#ArialMT-78" transform="translate(550.244141 0)"/>
      <use xlink:href="#ArialMT-70" transform="translate(600.244141 0)"/>
      <use xlink:href="#ArialMT-65" transform="translate(655.859375 0)"/>
      <use xlink:href="#ArialMT-72" transform="translate(711.474609 0)"/>
      <use xlink:href="#ArialMT-69" transform="translate(744.775391 0)"/>
      <use xlink:href="#ArialMT-6d" transform="translate(766.992188 0)"/>
      <use xlink:href="#ArialMT-65" transform="translate(850.292969 0)"/>
      <use xlink:href="#ArialMT-6e" transform="translate(905.908203 0)"/>
      <use xlink:href="#ArialMT-74" transform="translate(961.523438 0)"/>
      <use xlink:href="#ArialMT-73" transform="translate(989.306641 0)"/>
     </g>
    </g>
   </g>
   <g id="matplotlib.axis_2">
    <g id="ytick_1">
     <g id="line2d_5">
      <defs>
       <path id="m277cfa3a22" d="M 0 0 
L -3.5 0 
" style="stroke: #000000; stroke-width: 0.8"/>
      </defs>
      <g>
       <use xlink:href="#m277cfa3a22" x="67.98125" y="196.120026" style="stroke: #000000; stroke-width: 0.8"/>
      </g>
     </g>
     <g id="text_6">
      <!-- znin2s4 -->
      <g transform="translate(33.40875 198.983151) scale(0.08 -0.08)">
       <defs>
        <path id="ArialMT-7a" d="M 125 0 
L 125 456 
L 2238 2881 
Q 1878 2863 1603 2863 
L 250 2863 
L 250 3319 
L 2963 3319 
L 2963 2947 
L 1166 841 
L 819 456 
Q 1197 484 1528 484 
L 3063 484 
L 3063 0 
L 125 0 
z
" transform="scale(0.015625)"/>
       </defs>
       <use xlink:href="#ArialMT-7a"/>
       <use xlink:href="#ArialMT-6e" transform="translate(50 0)"/>
       <use xlink:href="#ArialMT-69" transform="translate(105.615234 0)"/>
       <use xlink:href="#ArialMT-6e" transform="translate(127.832031 0)"/>
       <use xlink:href="#ArialMT-32" transform="translate(183.447266 0)"/>
       <use xlink:href="#ArialMT-73" transform="translate(239.0625 0)"/>
       <use xlink:href="#ArialMT-34" transform="translate(289.0625 0)"/>
      </g>
     </g>
    </g>
    <g id="ytick_2">
     <g id="line2d_6">
      <g>
       <use xlink:href="#m277cfa3a22" x="67.98125" y="181.170874" style="stroke: #000000; stroke-width: 0.8"/>
      </g>
     </g>
     <g id="text_7">
      <!-- moo3 -->
      <g transform="translate(40.97125 184.033999) scale(0.08 -0.08)">
       <defs>
        <path id="ArialMT-33" d="M 269 1209 
L 831 1284 
Q 928 806 1161 595 
Q 1394 384 1728 384 
Q 2125 384 2398 659 
Q 2672 934 2672 1341 
Q 2672 1728 2419 1979 
Q 2166 2231 1775 2231 
Q 1616 2231 1378 2169 
L 1441 2663 
Q 1497 2656 1531 2656 
Q 1891 2656 2178 2843 
Q 2466 3031 2466 3422 
Q 2466 3731 2256 3934 
Q 2047 4138 1716 4138 
Q 1388 4138 1169 3931 
Q 950 3725 888 3313 
L 325 3413 
Q 428 3978 793 4289 
Q 1159 4600 1703 4600 
Q 2078 4600 2393 4439 
Q 2709 4278 2876 4000 
Q 3044 3722 3044 3409 
Q 3044 3113 2884 2869 
Q 2725 2625 2413 2481 
Q 2819 2388 3044 2092 
Q 3269 1797 3269 1353 
Q 3269 753 2831 336 
Q 2394 -81 1725 -81 
Q 1122 -81 723 278 
Q 325 638 269 1209 
z
" transform="scale(0.015625)"/>
       </defs>
       <use xlink:href="#ArialMT-6d"/>
       <use xlink:href="#ArialMT-6f" transform="translate(83.300781 0)"/>
       <use xlink:href="#ArialMT-6f" transform="translate(138.916016 0)"/>
       <use xlink:href="#ArialMT-33" transform="translate(194.53125 0)"/>
      </g>
     </g>
    </g>
    <g id="ytick_3">
     <g id="line2d_7">
      <g>
       <use xlink:href="#m277cfa3a22" x="67.98125" y="166.221721" style="stroke: #000000; stroke-width: 0.8"/>
      </g>
     </g>
     <g id="text_8">
      <!-- wo3 -->
      <g transform="translate(46.30625 169.084846) scale(0.08 -0.08)">
       <defs>
        <path id="ArialMT-77" d="M 1034 0 
L 19 3319 
L 600 3319 
L 1128 1403 
L 1325 691 
Q 1338 744 1497 1375 
L 2025 3319 
L 2603 3319 
L 3100 1394 
L 3266 759 
L 3456 1400 
L 4025 3319 
L 4572 3319 
L 3534 0 
L 2950 0 
L 2422 1988 
L 2294 2553 
L 1622 0 
L 1034 0 
z
" transform="scale(0.015625)"/>
       </defs>
       <use xlink:href="#ArialMT-77"/>
       <use xlink:href="#ArialMT-6f" transform="translate(72.216797 0)"/>
       <use xlink:href="#ArialMT-33" transform="translate(127.832031 0)"/>
      </g>
     </g>
    </g>
    <g id="ytick_4">
     <g id="line2d_8">
      <g>
       <use xlink:href="#m277cfa3a22" x="67.98125" y="151.272569" style="stroke: #000000; stroke-width: 0.8"/>
      </g>
     </g>
     <g id="text_9">
      <!-- ceo2 -->
      <g transform="translate(43.635 154.135694) scale(0.08 -0.08)">
       <defs>
        <path id="ArialMT-63" d="M 2588 1216 
L 3141 1144 
Q 3050 572 2676 248 
Q 2303 -75 1759 -75 
Q 1078 -75 664 370 
Q 250 816 250 1647 
Q 250 2184 428 2587 
Q 606 2991 970 3192 
Q 1334 3394 1763 3394 
Q 2303 3394 2647 3120 
Q 2991 2847 3088 2344 
L 2541 2259 
Q 2463 2594 2264 2762 
Q 2066 2931 1784 2931 
Q 1359 2931 1093 2626 
Q 828 2322 828 1663 
Q 828 994 1084 691 
Q 1341 388 1753 388 
Q 2084 388 2306 591 
Q 2528 794 2588 1216 
z
" transform="scale(0.015625)"/>
       </defs>
       <use xlink:href="#ArialMT-63"/>
       <use xlink:href="#ArialMT-65" transform="translate(50 0)"/>
       <use xlink:href="#ArialMT-6f" transform="translate(105.615234 0)"/>
       <use xlink:href="#ArialMT-32" transform="translate(161.230469 0)"/>
      </g>
     </g>
    </g>
    <g id="ytick_5">
     <g id="line2d_9">
      <g>
       <use xlink:href="#m277cfa3a22" x="67.98125" y="136.323416" style="stroke: #000000; stroke-width: 0.8"/>
      </g>
     </g>
     <g id="text_10">
      <!-- pbtio3 -->
      <g transform="translate(39.18625 139.198416) scale(0.08 -0.08)">
       <use xlink:href="#ArialMT-70"/>
       <use xlink:href="#ArialMT-62" transform="translate(55.615234 0)"/>
       <use xlink:href="#ArialMT-74" transform="translate(111.230469 0)"/>
       <use xlink:href="#ArialMT-69" transform="translate(139.013672 0)"/>
       <use xlink:href="#ArialMT-6f" transform="translate(161.230469 0)"/>
       <use xlink:href="#ArialMT-33" transform="translate(216.845703 0)"/>
      </g>
     </g>
    </g>
    <g id="ytick_6">
     <g id="line2d_10">
      <g>
       <use xlink:href="#m277cfa3a22" x="67.98125" y="121.374264" style="stroke: #000000; stroke-width: 0.8"/>
      </g>
     </g>
     <g id="text_11">
      <!-- cuo -->
      <g transform="translate(48.08375 124.237389) scale(0.08 -0.08)">
       <use xlink:href="#ArialMT-63"/>
       <use xlink:href="#ArialMT-75" transform="translate(50 0)"/>
       <use xlink:href="#ArialMT-6f" transform="translate(105.615234 0)"/>
      </g>
     </g>
    </g>
    <g id="ytick_7">
     <g id="line2d_11">
      <g>
       <use xlink:href="#m277cfa3a22" x="67.98125" y="106.425111" style="stroke: #000000; stroke-width: 0.8"/>
      </g>
     </g>
     <g id="text_12">
      <!-- sral2o4 -->
      <g transform="translate(34.745 109.288236) scale(0.08 -0.08)">
       <defs>
        <path id="ArialMT-61" d="M 2588 409 
Q 2275 144 1986 34 
Q 1697 -75 1366 -75 
Q 819 -75 525 192 
Q 231 459 231 875 
Q 231 1119 342 1320 
Q 453 1522 633 1644 
Q 813 1766 1038 1828 
Q 1203 1872 1538 1913 
Q 2219 1994 2541 2106 
Q 2544 2222 2544 2253 
Q 2544 2597 2384 2738 
Q 2169 2928 1744 2928 
Q 1347 2928 1158 2789 
Q 969 2650 878 2297 
L 328 2372 
Q 403 2725 575 2942 
Q 747 3159 1072 3276 
Q 1397 3394 1825 3394 
Q 2250 3394 2515 3294 
Q 2781 3194 2906 3042 
Q 3031 2891 3081 2659 
Q 3109 2516 3109 2141 
L 3109 1391 
Q 3109 606 3145 398 
Q 3181 191 3288 0 
L 2700 0 
Q 2613 175 2588 409 
z
M 2541 1666 
Q 2234 1541 1622 1453 
Q 1275 1403 1131 1340 
Q 988 1278 909 1158 
Q 831 1038 831 891 
Q 831 666 1001 516 
Q 1172 366 1500 366 
Q 1825 366 2078 508 
Q 2331 650 2450 897 
Q 2541 1088 2541 1459 
L 2541 1666 
z
" transform="scale(0.015625)"/>
        <path id="ArialMT-6c" d="M 409 0 
L 409 4581 
L 972 4581 
L 972 0 
L 409 0 
z
" transform="scale(0.015625)"/>
       </defs>
       <use xlink:href="#ArialMT-73"/>
       <use xlink:href="#ArialMT-72" transform="translate(50 0)"/>
       <use xlink:href="#ArialMT-61" transform="translate(83.300781 0)"/>
       <use xlink:href="#ArialMT-6c" transform="translate(138.916016 0)"/>
       <use xlink:href="#ArialMT-32" transform="translate(161.132812 0)"/>
       <use xlink:href="#ArialMT-6f" transform="translate(216.748047 0)"/>
       <use xlink:href="#ArialMT-34" transform="translate(272.363281 0)"/>
      </g>
     </g>
    </g>
    <g id="ytick_8">
     <g id="line2d_12">
      <g>
       <use xlink:href="#m277cfa3a22" x="67.98125" y="91.475959" style="stroke: #000000; stroke-width: 0.8"/>
      </g>
     </g>
     <g id="text_13">
      <!-- g-c3n4 -->
      <g transform="translate(36.5225 94.350959) scale(0.08 -0.08)">
       <defs>
        <path id="ArialMT-67" d="M 319 -275 
L 866 -356 
Q 900 -609 1056 -725 
Q 1266 -881 1628 -881 
Q 2019 -881 2231 -725 
Q 2444 -569 2519 -288 
Q 2563 -116 2559 434 
Q 2191 0 1641 0 
Q 956 0 581 494 
Q 206 988 206 1678 
Q 206 2153 378 2554 
Q 550 2956 876 3175 
Q 1203 3394 1644 3394 
Q 2231 3394 2613 2919 
L 2613 3319 
L 3131 3319 
L 3131 450 
Q 3131 -325 2973 -648 
Q 2816 -972 2473 -1159 
Q 2131 -1347 1631 -1347 
Q 1038 -1347 672 -1080 
Q 306 -813 319 -275 
z
M 784 1719 
Q 784 1066 1043 766 
Q 1303 466 1694 466 
Q 2081 466 2343 764 
Q 2606 1063 2606 1700 
Q 2606 2309 2336 2618 
Q 2066 2928 1684 2928 
Q 1309 2928 1046 2623 
Q 784 2319 784 1719 
z
" transform="scale(0.015625)"/>
        <path id="ArialMT-2d" d="M 203 1375 
L 203 1941 
L 1931 1941 
L 1931 1375 
L 203 1375 
z
" transform="scale(0.015625)"/>
       </defs>
       <use xlink:href="#ArialMT-67"/>
       <use xlink:href="#ArialMT-2d" transform="translate(55.615234 0)"/>
       <use xlink:href="#ArialMT-63" transform="translate(88.916016 0)"/>
       <use xlink:href="#ArialMT-33" transform="translate(138.916016 0)"/>
       <use xlink:href="#ArialMT-6e" transform="translate(194.53125 0)"/>
       <use xlink:href="#ArialMT-34" transform="translate(250.146484 0)"/>
      </g>
     </g>
    </g>
    <g id="ytick_9">
     <g id="line2d_13">
      <g>
       <use xlink:href="#m277cfa3a22" x="67.98125" y="76.526806" style="stroke: #000000; stroke-width: 0.8"/>
      </g>
     </g>
     <g id="text_14">
      <!-- cds -->
      <g transform="translate(48.5325 79.389931) scale(0.08 -0.08)">
       <defs>
        <path id="ArialMT-64" d="M 2575 0 
L 2575 419 
Q 2259 -75 1647 -75 
Q 1250 -75 917 144 
Q 584 363 401 755 
Q 219 1147 219 1656 
Q 219 2153 384 2558 
Q 550 2963 881 3178 
Q 1213 3394 1622 3394 
Q 1922 3394 2156 3267 
Q 2391 3141 2538 2938 
L 2538 4581 
L 3097 4581 
L 3097 0 
L 2575 0 
z
M 797 1656 
Q 797 1019 1065 703 
Q 1334 388 1700 388 
Q 2069 388 2326 689 
Q 2584 991 2584 1609 
Q 2584 2291 2321 2609 
Q 2059 2928 1675 2928 
Q 1300 2928 1048 2622 
Q 797 2316 797 1656 
z
" transform="scale(0.015625)"/>
       </defs>
       <use xlink:href="#ArialMT-63"/>
       <use xlink:href="#ArialMT-64" transform="translate(50 0)"/>
       <use xlink:href="#ArialMT-73" transform="translate(105.615234 0)"/>
      </g>
     </g>
    </g>
    <g id="ytick_10">
     <g id="line2d_14">
      <g>
       <use xlink:href="#m277cfa3a22" x="67.98125" y="61.577654" style="stroke: #000000; stroke-width: 0.8"/>
      </g>
     </g>
     <g id="text_15">
      <!-- la0.2na0.98tao3 -->
      <g transform="translate(3.6 64.440779) scale(0.08 -0.08)">
       <defs>
        <path id="ArialMT-2e" d="M 581 0 
L 581 641 
L 1222 641 
L 1222 0 
L 581 0 
z
" transform="scale(0.015625)"/>
        <path id="ArialMT-39" d="M 350 1059 
L 891 1109 
Q 959 728 1153 556 
Q 1347 384 1650 384 
Q 1909 384 2104 503 
Q 2300 622 2425 820 
Q 2550 1019 2634 1356 
Q 2719 1694 2719 2044 
Q 2719 2081 2716 2156 
Q 2547 1888 2255 1720 
Q 1963 1553 1622 1553 
Q 1053 1553 659 1965 
Q 266 2378 266 3053 
Q 266 3750 677 4175 
Q 1088 4600 1706 4600 
Q 2153 4600 2523 4359 
Q 2894 4119 3086 3673 
Q 3278 3228 3278 2384 
Q 3278 1506 3087 986 
Q 2897 466 2520 194 
Q 2144 -78 1638 -78 
Q 1100 -78 759 220 
Q 419 519 350 1059 
z
M 2653 3081 
Q 2653 3566 2395 3850 
Q 2138 4134 1775 4134 
Q 1400 4134 1122 3828 
Q 844 3522 844 3034 
Q 844 2597 1108 2323 
Q 1372 2050 1759 2050 
Q 2150 2050 2401 2323 
Q 2653 2597 2653 3081 
z
" transform="scale(0.015625)"/>
        <path id="ArialMT-38" d="M 1131 2484 
Q 781 2613 612 2850 
Q 444 3088 444 3419 
Q 444 3919 803 4259 
Q 1163 4600 1759 4600 
Q 2359 4600 2725 4251 
Q 3091 3903 3091 3403 
Q 3091 3084 2923 2848 
Q 2756 2613 2416 2484 
Q 2838 2347 3058 2040 
Q 3278 1734 3278 1309 
Q 3278 722 2862 322 
Q 2447 -78 1769 -78 
Q 1091 -78 675 323 
Q 259 725 259 1325 
Q 259 1772 486 2073 
Q 713 2375 1131 2484 
z
M 1019 3438 
Q 1019 3113 1228 2906 
Q 1438 2700 1772 2700 
Q 2097 2700 2305 2904 
Q 2513 3109 2513 3406 
Q 2513 3716 2298 3927 
Q 2084 4138 1766 4138 
Q 1444 4138 1231 3931 
Q 1019 3725 1019 3438 
z
M 838 1322 
Q 838 1081 952 856 
Q 1066 631 1291 507 
Q 1516 384 1775 384 
Q 2178 384 2440 643 
Q 2703 903 2703 1303 
Q 2703 1709 2433 1975 
Q 2163 2241 1756 2241 
Q 1359 2241 1098 1978 
Q 838 1716 838 1322 
z
" transform="scale(0.015625)"/>
       </defs>
       <use xlink:href="#ArialMT-6c"/>
       <use xlink:href="#ArialMT-61" transform="translate(22.216797 0)"/>
       <use xlink:href="#ArialMT-30" transform="translate(77.832031 0)"/>
       <use xlink:href="#ArialMT-2e" transform="translate(133.447266 0)"/>
       <use xlink:href="#ArialMT-32" transform="translate(161.230469 0)"/>
       <use xlink:href="#ArialMT-6e" transform="translate(216.845703 0)"/>
       <use xlink:href="#ArialMT-61" transform="translate(272.460938 0)"/>
       <use xlink:href="#ArialMT-30" transform="translate(328.076172 0)"/>
       <use xlink:href="#ArialMT-2e" transform="translate(383.691406 0)"/>
       <use xlink:href="#ArialMT-39" transform="translate(411.474609 0)"/>
       <use xlink:href="#ArialMT-38" transform="translate(467.089844 0)"/>
       <use xlink:href="#ArialMT-74" transform="translate(522.705078 0)"/>
       <use xlink:href="#ArialMT-61" transform="translate(550.488281 0)"/>
       <use xlink:href="#ArialMT-6f" transform="translate(606.103516 0)"/>
       <use xlink:href="#ArialMT-33" transform="translate(661.71875 0)"/>
      </g>
     </g>
    </g>
    <g id="ytick_11">
     <g id="line2d_15">
      <g>
       <use xlink:href="#m277cfa3a22" x="67.98125" y="46.628501" style="stroke: #000000; stroke-width: 0.8"/>
      </g>
     </g>
     <g id="text_16">
      <!-- zno -->
      <g transform="translate(48.08375 49.491626) scale(0.08 -0.08)">
       <use xlink:href="#ArialMT-7a"/>
       <use xlink:href="#ArialMT-6e" transform="translate(50 0)"/>
       <use xlink:href="#ArialMT-6f" transform="translate(105.615234 0)"/>
      </g>
     </g>
    </g>
    <g id="ytick_12">
     <g id="line2d_16">
      <g>
       <use xlink:href="#m277cfa3a22" x="67.98125" y="31.679349" style="stroke: #000000; stroke-width: 0.8"/>
      </g>
     </g>
     <g id="text_17">
      <!-- tio2 -->
      <g transform="translate(48.08375 34.542474) scale(0.08 -0.08)">
       <use xlink:href="#ArialMT-74"/>
       <use xlink:href="#ArialMT-69" transform="translate(27.783203 0)"/>
       <use xlink:href="#ArialMT-6f" transform="translate(50 0)"/>
       <use xlink:href="#ArialMT-32" transform="translate(105.615234 0)"/>
      </g>
     </g>
    </g>
   </g>
   <g id="patch_15">
    <path d="M 67.98125 210.919687 
L 67.98125 16.879687 
" style="fill: none; stroke: #000000; stroke-width: 0.8; stroke-linejoin: miter; stroke-linecap: square"/>
   </g>
   <g id="patch_16">
    <path d="M 67.98125 210.919687 
L 235.38125 210.919687 
" style="fill: none; stroke: #000000; stroke-width: 0.8; stroke-linejoin: miter; stroke-linecap: square"/>
   </g>
   <g id="text_18">
    <!-- a -->
    <g transform="translate(36.754219 15.051281) scale(0.11 -0.11)">
     <defs>
      <path id="Arial-BoldMT-61" d="M 1116 2306 
L 319 2450 
Q 453 2931 781 3162 
Q 1109 3394 1756 3394 
Q 2344 3394 2631 3255 
Q 2919 3116 3036 2902 
Q 3153 2688 3153 2116 
L 3144 1091 
Q 3144 653 3186 445 
Q 3228 238 3344 0 
L 2475 0 
Q 2441 88 2391 259 
Q 2369 338 2359 363 
Q 2134 144 1878 34 
Q 1622 -75 1331 -75 
Q 819 -75 523 203 
Q 228 481 228 906 
Q 228 1188 362 1408 
Q 497 1628 739 1745 
Q 981 1863 1438 1950 
Q 2053 2066 2291 2166 
L 2291 2253 
Q 2291 2506 2166 2614 
Q 2041 2722 1694 2722 
Q 1459 2722 1328 2630 
Q 1197 2538 1116 2306 
z
M 2291 1594 
Q 2122 1538 1756 1459 
Q 1391 1381 1278 1306 
Q 1106 1184 1106 997 
Q 1106 813 1243 678 
Q 1381 544 1594 544 
Q 1831 544 2047 700 
Q 2206 819 2256 991 
Q 2291 1103 2291 1419 
L 2291 1594 
z
" transform="scale(0.015625)"/>
     </defs>
     <use xlink:href="#Arial-BoldMT-61"/>
    </g>
   </g>
   <g id="text_19">
    <!-- Host material distribution -->
    <g transform="translate(96.6625 10.879687) scale(0.1 -0.1)">
     <defs>
      <path id="ArialMT-48" d="M 513 0 
L 513 4581 
L 1119 4581 
L 1119 2700 
L 3500 2700 
L 3500 4581 
L 4106 4581 
L 4106 0 
L 3500 0 
L 3500 2159 
L 1119 2159 
L 1119 0 
L 513 0 
z
" transform="scale(0.015625)"/>
     </defs>
     <use xlink:href="#ArialMT-48"/>
     <use xlink:href="#ArialMT-6f" transform="translate(72.216797 0)"/>
     <use xlink:href="#ArialMT-73" transform="translate(127.832031 0)"/>
     <use xlink:href="#ArialMT-74" transform="translate(177.832031 0)"/>
     <use xlink:href="#ArialMT-20" transform="translate(205.615234 0)"/>
     <use xlink:href="#ArialMT-6d" transform="translate(233.398438 0)"/>
     <use xlink:href="#ArialMT-61" transform="translate(316.699219 0)"/>
     <use xlink:href="#ArialMT-74" transform="translate(372.314453 0)"/>
     <use xlink:href="#ArialMT-65" transform="translate(400.097656 0)"/>
     <use xlink:href="#ArialMT-72" transform="translate(455.712891 0)"/>
     <use xlink:href="#ArialMT-69" transform="translate(489.013672 0)"/>
     <use xlink:href="#ArialMT-61" transform="translate(511.230469 0)"/>
     <use xlink:href="#ArialMT-6c" transform="translate(566.845703 0)"/>
     <use xlink:href="#ArialMT-20" transform="translate(589.0625 0)"/>
     <use xlink:href="#ArialMT-64" transform="translate(616.845703 0)"/>
     <use xlink:href="#ArialMT-69" transform="translate(672.460938 0)"/>
     <use xlink:href="#ArialMT-73" transform="translate(694.677734 0)"/>
     <use xlink:href="#ArialMT-74" transform="translate(744.677734 0)"/>
     <use xlink:href="#ArialMT-72" transform="translate(772.460938 0)"/>
     <use xlink:href="#ArialMT-69" transform="translate(805.761719 0)"/>
     <use xlink:href="#ArialMT-62" transform="translate(827.978516 0)"/>
     <use xlink:href="#ArialMT-75" transform="translate(883.59375 0)"/>
     <use xlink:href="#ArialMT-74" transform="translate(939.208984 0)"/>
     <use xlink:href="#ArialMT-69" transform="translate(966.992188 0)"/>
     <use xlink:href="#ArialMT-6f" transform="translate(989.208984 0)"/>
     <use xlink:href="#ArialMT-6e" transform="translate(1044.824219 0)"/>
    </g>
   </g>
  </g>
  <g id="axes_2">
   <g id="patch_17">
    <path d="M 302.34125 210.919687 
L 469.74125 210.919687 
L 469.74125 16.879687 
L 302.34125 16.879687 
z
" style="fill: #ffffff"/>
   </g>
   <g id="patch_18">
    <path d="M 309.950341 210.919687 
L 315.023068 210.919687 
L 315.023068 189.71313 
L 309.950341 189.71313 
z
" clip-path="url(#p57d0ffaf88)" style="fill: #e69f00; opacity: 0.85; stroke: #000000; stroke-width: 0.3; stroke-linejoin: miter"/>
   </g>
   <g id="patch_19">
    <path d="M 315.023068 210.919687 
L 320.095795 210.919687 
L 320.095795 210.919687 
L 315.023068 210.919687 
z
" clip-path="url(#p57d0ffaf88)" style="fill: #e69f00; opacity: 0.85; stroke: #000000; stroke-width: 0.3; stroke-linejoin: miter"/>
   </g>
   <g id="patch_20">
    <path d="M 320.095795 210.919687 
L 325.168523 210.919687 
L 325.168523 195.772147 
L 320.095795 195.772147 
z
" clip-path="url(#p57d0ffaf88)" style="fill: #e69f00; opacity: 0.85; stroke: #000000; stroke-width: 0.3; stroke-linejoin: miter"/>
   </g>
   <g id="patch_21">
    <path d="M 325.168523 210.919687 
L 330.24125 210.919687 
L 330.24125 183.654114 
L 325.168523 183.654114 
z
" clip-path="url(#p57d0ffaf88)" style="fill: #e69f00; opacity: 0.85; stroke: #000000; stroke-width: 0.3; stroke-linejoin: miter"/>
   </g>
   <g id="patch_22">
    <path d="M 330.24125 210.919687 
L 335.313977 210.919687 
L 335.313977 195.772147 
L 330.24125 195.772147 
z
" clip-path="url(#p57d0ffaf88)" style="fill: #e69f00; opacity: 0.85; stroke: #000000; stroke-width: 0.3; stroke-linejoin: miter"/>
   </g>
   <g id="patch_23">
    <path d="M 335.313977 210.919687 
L 340.386705 210.919687 
L 340.386705 192.742638 
L 335.313977 192.742638 
z
" clip-path="url(#p57d0ffaf88)" style="fill: #e69f00; opacity: 0.85; stroke: #000000; stroke-width: 0.3; stroke-linejoin: miter"/>
   </g>
   <g id="patch_24">
    <path d="M 340.386705 210.919687 
L 345.459432 210.919687 
L 345.459432 192.742638 
L 340.386705 192.742638 
z
" clip-path="url(#p57d0ffaf88)" style="fill: #e69f00; opacity: 0.85; stroke: #000000; stroke-width: 0.3; stroke-linejoin: miter"/>
   </g>
   <g id="patch_25">
    <path d="M 345.459432 210.919687 
L 350.532159 210.919687 
L 350.532159 168.506573 
L 345.459432 168.506573 
z
" clip-path="url(#p57d0ffaf88)" style="fill: #e69f00; opacity: 0.85; stroke: #000000; stroke-width: 0.3; stroke-linejoin: miter"/>
   </g>
   <g id="patch_26">
    <path d="M 350.532159 210.919687 
L 355.604886 210.919687 
L 355.604886 159.418048 
L 350.532159 159.418048 
z
" clip-path="url(#p57d0ffaf88)" style="fill: #e69f00; opacity: 0.85; stroke: #000000; stroke-width: 0.3; stroke-linejoin: miter"/>
   </g>
   <g id="patch_27">
    <path d="M 355.604886 210.919687 
L 360.677614 210.919687 
L 360.677614 153.359032 
L 355.604886 153.359032 
z
" clip-path="url(#p57d0ffaf88)" style="fill: #e69f00; opacity: 0.85; stroke: #000000; stroke-width: 0.3; stroke-linejoin: miter"/>
   </g>
   <g id="patch_28">
    <path d="M 360.677614 210.919687 
L 365.750341 210.919687 
L 365.750341 123.06395 
L 360.677614 123.06395 
z
" clip-path="url(#p57d0ffaf88)" style="fill: #e69f00; opacity: 0.85; stroke: #000000; stroke-width: 0.3; stroke-linejoin: miter"/>
   </g>
   <g id="patch_29">
    <path d="M 365.750341 210.919687 
L 370.823068 210.919687 
L 370.823068 110.945917 
L 365.750341 110.945917 
z
" clip-path="url(#p57d0ffaf88)" style="fill: #e69f00; opacity: 0.85; stroke: #000000; stroke-width: 0.3; stroke-linejoin: miter"/>
   </g>
   <g id="patch_30">
    <path d="M 370.823068 210.919687 
L 375.895795 210.919687 
L 375.895795 80.650835 
L 370.823068 80.650835 
z
" clip-path="url(#p57d0ffaf88)" style="fill: #e69f00; opacity: 0.85; stroke: #000000; stroke-width: 0.3; stroke-linejoin: miter"/>
   </g>
   <g id="patch_31">
    <path d="M 375.895795 210.919687 
L 380.968523 210.919687 
L 380.968523 47.326245 
L 375.895795 47.326245 
z
" clip-path="url(#p57d0ffaf88)" style="fill: #e69f00; opacity: 0.85; stroke: #000000; stroke-width: 0.3; stroke-linejoin: miter"/>
   </g>
   <g id="patch_32">
    <path d="M 380.968523 210.919687 
L 386.04125 210.919687 
L 386.04125 104.886901 
L 380.968523 104.886901 
z
" clip-path="url(#p57d0ffaf88)" style="fill: #e69f00; opacity: 0.85; stroke: #000000; stroke-width: 0.3; stroke-linejoin: miter"/>
   </g>
   <g id="patch_33">
    <path d="M 386.04125 210.919687 
L 391.113977 210.919687 
L 391.113977 83.680343 
L 386.04125 83.680343 
z
" clip-path="url(#p57d0ffaf88)" style="fill: #e69f00; opacity: 0.85; stroke: #000000; stroke-width: 0.3; stroke-linejoin: miter"/>
   </g>
   <g id="patch_34">
    <path d="M 391.113977 210.919687 
L 396.186705 210.919687 
L 396.186705 44.296737 
L 391.113977 44.296737 
z
" clip-path="url(#p57d0ffaf88)" style="fill: #e69f00; opacity: 0.85; stroke: #000000; stroke-width: 0.3; stroke-linejoin: miter"/>
   </g>
   <g id="patch_35">
    <path d="M 396.186705 210.919687 
L 401.259432 210.919687 
L 401.259432 74.591819 
L 396.186705 74.591819 
z
" clip-path="url(#p57d0ffaf88)" style="fill: #e69f00; opacity: 0.85; stroke: #000000; stroke-width: 0.3; stroke-linejoin: miter"/>
   </g>
   <g id="patch_36">
    <path d="M 401.259432 210.919687 
L 406.332159 210.919687 
L 406.332159 41.267228 
L 401.259432 41.267228 
z
" clip-path="url(#p57d0ffaf88)" style="fill: #e69f00; opacity: 0.85; stroke: #000000; stroke-width: 0.3; stroke-linejoin: miter"/>
   </g>
   <g id="patch_37">
    <path d="M 406.332159 210.919687 
L 411.404886 210.919687 
L 411.404886 44.296737 
L 406.332159 44.296737 
z
" clip-path="url(#p57d0ffaf88)" style="fill: #e69f00; opacity: 0.85; stroke: #000000; stroke-width: 0.3; stroke-linejoin: miter"/>
   </g>
   <g id="patch_38">
    <path d="M 411.404886 210.919687 
L 416.477614 210.919687 
L 416.477614 92.768868 
L 411.404886 92.768868 
z
" clip-path="url(#p57d0ffaf88)" style="fill: #e69f00; opacity: 0.85; stroke: #000000; stroke-width: 0.3; stroke-linejoin: miter"/>
   </g>
   <g id="patch_39">
    <path d="M 416.477614 210.919687 
L 421.550341 210.919687 
L 421.550341 68.532802 
L 416.477614 68.532802 
z
" clip-path="url(#p57d0ffaf88)" style="fill: #e69f00; opacity: 0.85; stroke: #000000; stroke-width: 0.3; stroke-linejoin: miter"/>
   </g>
   <g id="patch_40">
    <path d="M 421.550341 210.919687 
L 426.623068 210.919687 
L 426.623068 71.56231 
L 421.550341 71.56231 
z
" clip-path="url(#p57d0ffaf88)" style="fill: #e69f00; opacity: 0.85; stroke: #000000; stroke-width: 0.3; stroke-linejoin: miter"/>
   </g>
   <g id="patch_41">
    <path d="M 426.623068 210.919687 
L 431.695795 210.919687 
L 431.695795 26.119687 
L 426.623068 26.119687 
z
" clip-path="url(#p57d0ffaf88)" style="fill: #e69f00; opacity: 0.85; stroke: #000000; stroke-width: 0.3; stroke-linejoin: miter"/>
   </g>
   <g id="patch_42">
    <path d="M 431.695795 210.919687 
L 436.768523 210.919687 
L 436.768523 92.768868 
L 431.695795 92.768868 
z
" clip-path="url(#p57d0ffaf88)" style="fill: #e69f00; opacity: 0.85; stroke: #000000; stroke-width: 0.3; stroke-linejoin: miter"/>
   </g>
   <g id="patch_43">
    <path d="M 436.768523 210.919687 
L 441.84125 210.919687 
L 441.84125 95.798376 
L 436.768523 95.798376 
z
" clip-path="url(#p57d0ffaf88)" style="fill: #e69f00; opacity: 0.85; stroke: #000000; stroke-width: 0.3; stroke-linejoin: miter"/>
   </g>
   <g id="patch_44">
    <path d="M 441.84125 210.919687 
L 446.913977 210.919687 
L 446.913977 171.536081 
L 441.84125 171.536081 
z
" clip-path="url(#p57d0ffaf88)" style="fill: #e69f00; opacity: 0.85; stroke: #000000; stroke-width: 0.3; stroke-linejoin: miter"/>
   </g>
   <g id="patch_45">
    <path d="M 446.913977 210.919687 
L 451.986705 210.919687 
L 451.986705 195.772147 
L 446.913977 195.772147 
z
" clip-path="url(#p57d0ffaf88)" style="fill: #e69f00; opacity: 0.85; stroke: #000000; stroke-width: 0.3; stroke-linejoin: miter"/>
   </g>
   <g id="patch_46">
    <path d="M 451.986705 210.919687 
L 457.059432 210.919687 
L 457.059432 183.654114 
L 451.986705 183.654114 
z
" clip-path="url(#p57d0ffaf88)" style="fill: #e69f00; opacity: 0.85; stroke: #000000; stroke-width: 0.3; stroke-linejoin: miter"/>
   </g>
   <g id="patch_47">
    <path d="M 457.059432 210.919687 
L 462.132159 210.919687 
L 462.132159 192.742638 
L 457.059432 192.742638 
z
" clip-path="url(#p57d0ffaf88)" style="fill: #e69f00; opacity: 0.85; stroke: #000000; stroke-width: 0.3; stroke-linejoin: miter"/>
   </g>
   <g id="matplotlib.axis_3">
    <g id="xtick_5">
     <g id="line2d_17">
      <g>
       <use xlink:href="#m843ef558c6" x="308.338613" y="210.919687" style="stroke: #000000; stroke-width: 0.8"/>
      </g>
     </g>
     <g id="text_20">
      <!-- 0 -->
      <g transform="translate(306.114238 223.645937) scale(0.08 -0.08)">
       <use xlink:href="#ArialMT-30"/>
      </g>
     </g>
    </g>
    <g id="xtick_6">
     <g id="line2d_18">
      <g>
       <use xlink:href="#m843ef558c6" x="336.661823" y="210.919687" style="stroke: #000000; stroke-width: 0.8"/>
      </g>
     </g>
     <g id="text_21">
      <!-- 1 -->
      <g transform="translate(334.437448 223.645937) scale(0.08 -0.08)">
       <defs>
        <path id="ArialMT-31" d="M 2384 0 
L 1822 0 
L 1822 3584 
Q 1619 3391 1289 3197 
Q 959 3003 697 2906 
L 697 3450 
Q 1169 3672 1522 3987 
Q 1875 4303 2022 4600 
L 2384 4600 
L 2384 0 
z
" transform="scale(0.015625)"/>
       </defs>
       <use xlink:href="#ArialMT-31"/>
      </g>
     </g>
    </g>
    <g id="xtick_7">
     <g id="line2d_19">
      <g>
       <use xlink:href="#m843ef558c6" x="364.985033" y="210.919687" style="stroke: #000000; stroke-width: 0.8"/>
      </g>
     </g>
     <g id="text_22">
      <!-- 2 -->
      <g transform="translate(362.760658 223.645937) scale(0.08 -0.08)">
       <use xlink:href="#ArialMT-32"/>
      </g>
     </g>
    </g>
    <g id="xtick_8">
     <g id="line2d_20">
      <g>
       <use xlink:href="#m843ef558c6" x="393.308243" y="210.919687" style="stroke: #000000; stroke-width: 0.8"/>
      </g>
     </g>
     <g id="text_23">
      <!-- 3 -->
      <g transform="translate(391.083868 223.645937) scale(0.08 -0.08)">
       <use xlink:href="#ArialMT-33"/>
      </g>
     </g>
    </g>
    <g id="xtick_9">
     <g id="line2d_21">
      <g>
       <use xlink:href="#m843ef558c6" x="421.631453" y="210.919687" style="stroke: #000000; stroke-width: 0.8"/>
      </g>
     </g>
     <g id="text_24">
      <!-- 4 -->
      <g transform="translate(419.407078 223.645937) scale(0.08 -0.08)">
       <use xlink:href="#ArialMT-34"/>
      </g>
     </g>
    </g>
    <g id="xtick_10">
     <g id="line2d_22">
      <g>
       <use xlink:href="#m843ef558c6" x="449.954663" y="210.919687" style="stroke: #000000; stroke-width: 0.8"/>
      </g>
     </g>
     <g id="text_25">
      <!-- 5 -->
      <g transform="translate(447.730288 223.645937) scale(0.08 -0.08)">
       <defs>
        <path id="ArialMT-35" d="M 266 1200 
L 856 1250 
Q 922 819 1161 601 
Q 1400 384 1738 384 
Q 2144 384 2425 690 
Q 2706 997 2706 1503 
Q 2706 1984 2436 2262 
Q 2166 2541 1728 2541 
Q 1456 2541 1237 2417 
Q 1019 2294 894 2097 
L 366 2166 
L 809 4519 
L 3088 4519 
L 3088 3981 
L 1259 3981 
L 1013 2750 
Q 1425 3038 1878 3038 
Q 2478 3038 2890 2622 
Q 3303 2206 3303 1553 
Q 3303 931 2941 478 
Q 2500 -78 1738 -78 
Q 1113 -78 717 272 
Q 322 622 266 1200 
z
" transform="scale(0.015625)"/>
       </defs>
       <use xlink:href="#ArialMT-35"/>
      </g>
     </g>
    </g>
    <g id="text_26">
     <!-- log₁₀(HER + 1)  [µmol g⁻¹ h⁻¹] -->
     <g transform="translate(321.06125 235.787656) scale(0.09 -0.09)">
      <defs>
       <path id="ArialMT-2081" d="M 800 0 
L 800 4000 
L 4000 4000 
L 4000 0 
L 800 0 
z
M 900 100 
L 3900 100 
L 3900 3900 
L 900 3900 
L 900 100 
z
" transform="scale(0.015625)"/>
       <path id="ArialMT-2080" d="M 800 0 
L 800 4000 
L 4000 4000 
L 4000 0 
L 800 0 
z
M 900 100 
L 3900 100 
L 3900 3900 
L 900 3900 
L 900 100 
z
" transform="scale(0.015625)"/>
       <path id="ArialMT-28" d="M 1497 -1347 
Q 1031 -759 709 28 
Q 388 816 388 1659 
Q 388 2403 628 3084 
Q 909 3875 1497 4659 
L 1900 4659 
Q 1522 4009 1400 3731 
Q 1209 3300 1100 2831 
Q 966 2247 966 1656 
Q 966 153 1900 -1347 
L 1497 -1347 
z
" transform="scale(0.015625)"/>
       <path id="ArialMT-45" d="M 506 0 
L 506 4581 
L 3819 4581 
L 3819 4041 
L 1113 4041 
L 1113 2638 
L 3647 2638 
L 3647 2100 
L 1113 2100 
L 1113 541 
L 3925 541 
L 3925 0 
L 506 0 
z
" transform="scale(0.015625)"/>
       <path id="ArialMT-52" d="M 503 0 
L 503 4581 
L 2534 4581 
Q 3147 4581 3465 4457 
Q 3784 4334 3975 4021 
Q 4166 3709 4166 3331 
Q 4166 2844 3850 2509 
Q 3534 2175 2875 2084 
Q 3116 1969 3241 1856 
Q 3506 1613 3744 1247 
L 4541 0 
L 3778 0 
L 3172 953 
Q 2906 1366 2734 1584 
Q 2563 1803 2427 1890 
Q 2291 1978 2150 2013 
Q 2047 2034 1813 2034 
L 1109 2034 
L 1109 0 
L 503 0 
z
M 1109 2559 
L 2413 2559 
Q 2828 2559 3062 2645 
Q 3297 2731 3419 2920 
Q 3541 3109 3541 3331 
Q 3541 3656 3305 3865 
Q 3069 4075 2559 4075 
L 1109 4075 
L 1109 2559 
z
" transform="scale(0.015625)"/>
       <path id="ArialMT-2b" d="M 1603 741 
L 1603 1997 
L 356 1997 
L 356 2522 
L 1603 2522 
L 1603 3769 
L 2134 3769 
L 2134 2522 
L 3381 2522 
L 3381 1997 
L 2134 1997 
L 2134 741 
L 1603 741 
z
" transform="scale(0.015625)"/>
       <path id="ArialMT-29" d="M 791 -1347 
L 388 -1347 
Q 1322 153 1322 1656 
Q 1322 2244 1188 2822 
Q 1081 3291 891 3722 
Q 769 4003 388 4659 
L 791 4659 
Q 1378 3875 1659 3084 
Q 1900 2403 1900 1659 
Q 1900 816 1576 28 
Q 1253 -759 791 -1347 
z
" transform="scale(0.015625)"/>
       <path id="ArialMT-5b" d="M 434 -1272 
L 434 4581 
L 1675 4581 
L 1675 4116 
L 997 4116 
L 997 -806 
L 1675 -806 
L 1675 -1272 
L 434 -1272 
z
" transform="scale(0.015625)"/>
       <path id="ArialMT-b5" d="M 3181 3319 
L 3181 0 
L 2678 0 
L 2678 394 
Q 2516 144 2356 50 
Q 2138 -78 1847 -78 
Q 1588 -78 1388 25 
Q 1238 103 1056 334 
L 1056 -1272 
L 500 -1272 
L 500 3319 
L 1056 3319 
L 1056 1913 
Q 1056 1147 1137 920 
Q 1219 694 1401 562 
Q 1584 431 1822 431 
Q 2072 431 2269 568 
Q 2466 706 2547 923 
Q 2628 1141 2628 1903 
L 2628 3319 
L 3181 3319 
z
" transform="scale(0.015625)"/>
       <path id="ArialMT-207b" d="M 800 0 
L 800 4000 
L 4000 4000 
L 4000 0 
L 800 0 
z
M 900 100 
L 3900 100 
L 3900 3900 
L 900 3900 
L 900 100 
z
" transform="scale(0.015625)"/>
       <path id="ArialMT-b9" d="M 1034 2291 
L 1034 4022 
Q 716 3769 334 3669 
L 334 4053 
Q 528 4116 765 4281 
Q 1003 4447 1150 4638 
L 1488 4638 
L 1488 2291 
L 1034 2291 
z
" transform="scale(0.015625)"/>
       <path id="ArialMT-68" d="M 422 0 
L 422 4581 
L 984 4581 
L 984 2938 
Q 1378 3394 1978 3394 
Q 2347 3394 2619 3248 
Q 2891 3103 3008 2847 
Q 3125 2591 3125 2103 
L 3125 0 
L 2563 0 
L 2563 2103 
Q 2563 2525 2380 2717 
Q 2197 2909 1863 2909 
Q 1613 2909 1392 2779 
Q 1172 2650 1078 2428 
Q 984 2206 984 1816 
L 984 0 
L 422 0 
z
" transform="scale(0.015625)"/>
       <path id="ArialMT-5d" d="M 1363 -1272 
L 122 -1272 
L 122 -806 
L 800 -806 
L 800 4116 
L 122 4116 
L 122 4581 
L 1363 4581 
L 1363 -1272 
z
" transform="scale(0.015625)"/>
      </defs>
      <use xlink:href="#ArialMT-6c"/>
      <use xlink:href="#ArialMT-6f" transform="translate(22.216797 0)"/>
      <use xlink:href="#ArialMT-67" transform="translate(77.832031 0)"/>
      <use xlink:href="#ArialMT-2081" transform="translate(133.447266 0)"/>
      <use xlink:href="#ArialMT-2080" transform="translate(208.447266 0)"/>
      <use xlink:href="#ArialMT-28" transform="translate(283.447266 0)"/>
      <use xlink:href="#ArialMT-48" transform="translate(316.748047 0)"/>
      <use xlink:href="#ArialMT-45" transform="translate(388.964844 0)"/>
      <use xlink:href="#ArialMT-52" transform="translate(455.664062 0)"/>
      <use xlink:href="#ArialMT-20" transform="translate(527.880859 0)"/>
      <use xlink:href="#ArialMT-2b" transform="translate(555.664062 0)"/>
      <use xlink:href="#ArialMT-20" transform="translate(614.0625 0)"/>
      <use xlink:href="#ArialMT-31" transform="translate(641.845703 0)"/>
      <use xlink:href="#ArialMT-29" transform="translate(697.460938 0)"/>
      <use xlink:href="#ArialMT-20" transform="translate(730.761719 0)"/>
      <use xlink:href="#ArialMT-20" transform="translate(758.544922 0)"/>
      <use xlink:href="#ArialMT-5b" transform="translate(786.328125 0)"/>
      <use xlink:href="#ArialMT-b5" transform="translate(814.111328 0)"/>
      <use xlink:href="#ArialMT-6d" transform="translate(871.728516 0)"/>
      <use xlink:href="#ArialMT-6f" transform="translate(955.029297 0)"/>
      <use xlink:href="#ArialMT-6c" transform="translate(1010.644531 0)"/>
      <use xlink:href="#ArialMT-20" transform="translate(1032.861328 0)"/>
      <use xlink:href="#ArialMT-67" transform="translate(1060.644531 0)"/>
      <use xlink:href="#ArialMT-207b" transform="translate(1116.259766 0)"/>
      <use xlink:href="#ArialMT-b9" transform="translate(1191.259766 0)"/>
      <use xlink:href="#ArialMT-20" transform="translate(1224.560547 0)"/>
      <use xlink:href="#ArialMT-68" transform="translate(1252.34375 0)"/>
      <use xlink:href="#ArialMT-207b" transform="translate(1307.958984 0)"/>
      <use xlink:href="#ArialMT-b9" transform="translate(1382.958984 0)"/>
      <use xlink:href="#ArialMT-5d" transform="translate(1416.259766 0)"/>
     </g>
    </g>
   </g>
   <g id="matplotlib.axis_4">
    <g id="ytick_13">
     <g id="line2d_23">
      <g>
       <use xlink:href="#m277cfa3a22" x="302.34125" y="210.919687" style="stroke: #000000; stroke-width: 0.8"/>
      </g>
     </g>
     <g id="text_27">
      <!-- 0 -->
      <g transform="translate(290.8925 213.782812) scale(0.08 -0.08)">
       <use xlink:href="#ArialMT-30"/>
      </g>
     </g>
    </g>
    <g id="ytick_14">
     <g id="line2d_24">
      <g>
       <use xlink:href="#m277cfa3a22" x="302.34125" y="180.624606" style="stroke: #000000; stroke-width: 0.8"/>
      </g>
     </g>
     <g id="text_28">
      <!-- 10 -->
      <g transform="translate(286.44375 183.487731) scale(0.08 -0.08)">
       <use xlink:href="#ArialMT-31"/>
       <use xlink:href="#ArialMT-30" transform="translate(55.615234 0)"/>
      </g>
     </g>
    </g>
    <g id="ytick_15">
     <g id="line2d_25">
      <g>
       <use xlink:href="#m277cfa3a22" x="302.34125" y="150.329524" style="stroke: #000000; stroke-width: 0.8"/>
      </g>
     </g>
     <g id="text_29">
      <!-- 20 -->
      <g transform="translate(286.44375 153.192649) scale(0.08 -0.08)">
       <use xlink:href="#ArialMT-32"/>
       <use xlink:href="#ArialMT-30" transform="translate(55.615234 0)"/>
      </g>
     </g>
    </g>
    <g id="ytick_16">
     <g id="line2d_26">
      <g>
       <use xlink:href="#m277cfa3a22" x="302.34125" y="120.034442" style="stroke: #000000; stroke-width: 0.8"/>
      </g>
     </g>
     <g id="text_30">
      <!-- 30 -->
      <g transform="translate(286.44375 122.897567) scale(0.08 -0.08)">
       <use xlink:href="#ArialMT-33"/>
       <use xlink:href="#ArialMT-30" transform="translate(55.615234 0)"/>
      </g>
     </g>
    </g>
    <g id="ytick_17">
     <g id="line2d_27">
      <g>
       <use xlink:href="#m277cfa3a22" x="302.34125" y="89.73936" style="stroke: #000000; stroke-width: 0.8"/>
      </g>
     </g>
     <g id="text_31">
      <!-- 40 -->
      <g transform="translate(286.44375 92.602485) scale(0.08 -0.08)">
       <use xlink:href="#ArialMT-34"/>
       <use xlink:href="#ArialMT-30" transform="translate(55.615234 0)"/>
      </g>
     </g>
    </g>
    <g id="ytick_18">
     <g id="line2d_28">
      <g>
       <use xlink:href="#m277cfa3a22" x="302.34125" y="59.444278" style="stroke: #000000; stroke-width: 0.8"/>
      </g>
     </g>
     <g id="text_32">
      <!-- 50 -->
      <g transform="translate(286.44375 62.307403) scale(0.08 -0.08)">
       <use xlink:href="#ArialMT-35"/>
       <use xlink:href="#ArialMT-30" transform="translate(55.615234 0)"/>
      </g>
     </g>
    </g>
    <g id="ytick_19">
     <g id="line2d_29">
      <g>
       <use xlink:href="#m277cfa3a22" x="302.34125" y="29.149196" style="stroke: #000000; stroke-width: 0.8"/>
      </g>
     </g>
     <g id="text_33">
      <!-- 60 -->
      <g transform="translate(286.44375 32.012321) scale(0.08 -0.08)">
       <use xlink:href="#ArialMT-36"/>
       <use xlink:href="#ArialMT-30" transform="translate(55.615234 0)"/>
      </g>
     </g>
    </g>
    <g id="text_34">
     <!-- Count -->
     <g transform="translate(280.655 125.906953) rotate(-90) scale(0.09 -0.09)">
      <defs>
       <path id="ArialMT-43" d="M 3763 1606 
L 4369 1453 
Q 4178 706 3683 314 
Q 3188 -78 2472 -78 
Q 1731 -78 1267 223 
Q 803 525 561 1097 
Q 319 1669 319 2325 
Q 319 3041 592 3573 
Q 866 4106 1370 4382 
Q 1875 4659 2481 4659 
Q 3169 4659 3637 4309 
Q 4106 3959 4291 3325 
L 3694 3184 
Q 3534 3684 3231 3912 
Q 2928 4141 2469 4141 
Q 1941 4141 1586 3887 
Q 1231 3634 1087 3207 
Q 944 2781 944 2328 
Q 944 1744 1114 1308 
Q 1284 872 1643 656 
Q 2003 441 2422 441 
Q 2931 441 3284 734 
Q 3638 1028 3763 1606 
z
" transform="scale(0.015625)"/>
      </defs>
      <use xlink:href="#ArialMT-43"/>
      <use xlink:href="#ArialMT-6f" transform="translate(72.216797 0)"/>
      <use xlink:href="#ArialMT-75" transform="translate(127.832031 0)"/>
      <use xlink:href="#ArialMT-6e" transform="translate(183.447266 0)"/>
      <use xlink:href="#ArialMT-74" transform="translate(239.0625 0)"/>
     </g>
    </g>
   </g>
   <g id="patch_48">
    <path d="M 302.34125 210.919687 
L 302.34125 16.879687 
" style="fill: none; stroke: #000000; stroke-width: 0.8; stroke-linejoin: miter; stroke-linecap: square"/>
   </g>
   <g id="patch_49">
    <path d="M 302.34125 210.919687 
L 469.74125 210.919687 
" style="fill: none; stroke: #000000; stroke-width: 0.8; stroke-linejoin: miter; stroke-linecap: square"/>
   </g>
   <g id="text_35">
    <!-- b -->
    <g transform="translate(270.512656 15.051281) scale(0.11 -0.11)">
     <defs>
      <path id="Arial-BoldMT-62" d="M 422 0 
L 422 4581 
L 1300 4581 
L 1300 2931 
Q 1706 3394 2263 3394 
Q 2869 3394 3266 2955 
Q 3663 2516 3663 1694 
Q 3663 844 3258 384 
Q 2853 -75 2275 -75 
Q 1991 -75 1714 67 
Q 1438 209 1238 488 
L 1238 0 
L 422 0 
z
M 1294 1731 
Q 1294 1216 1456 969 
Q 1684 619 2063 619 
Q 2353 619 2558 867 
Q 2763 1116 2763 1650 
Q 2763 2219 2556 2470 
Q 2350 2722 2028 2722 
Q 1713 2722 1503 2476 
Q 1294 2231 1294 1731 
z
" transform="scale(0.015625)"/>
     </defs>
     <use xlink:href="#Arial-BoldMT-62"/>
    </g>
   </g>
   <g id="text_36">
    <!-- HER distribution (n = 838) -->
    <g transform="translate(328.377969 10.879687) scale(0.1 -0.1)">
     <defs>
      <path id="ArialMT-3d" d="M 3381 2694 
L 356 2694 
L 356 3219 
L 3381 3219 
L 3381 2694 
z
M 3381 1303 
L 356 1303 
L 356 1828 
L 3381 1828 
L 3381 1303 
z
" transform="scale(0.015625)"/>
     </defs>
     <use xlink:href="#ArialMT-48"/>
     <use xlink:href="#ArialMT-45" transform="translate(72.216797 0)"/>
     <use xlink:href="#ArialMT-52" transform="translate(138.916016 0)"/>
     <use xlink:href="#ArialMT-20" transform="translate(211.132812 0)"/>
     <use xlink:href="#ArialMT-64" transform="translate(238.916016 0)"/>
     <use xlink:href="#ArialMT-69" transform="translate(294.53125 0)"/>
     <use xlink:href="#ArialMT-73" transform="translate(316.748047 0)"/>
     <use xlink:href="#ArialMT-74" transform="translate(366.748047 0)"/>
     <use xlink:href="#ArialMT-72" transform="translate(394.53125 0)"/>
     <use xlink:href="#ArialMT-69" transform="translate(427.832031 0)"/>
     <use xlink:href="#ArialMT-62" transform="translate(450.048828 0)"/>
     <use xlink:href="#ArialMT-75" transform="translate(505.664062 0)"/>
     <use xlink:href="#ArialMT-74" transform="translate(561.279297 0)"/>
     <use xlink:href="#ArialMT-69" transform="translate(589.0625 0)"/>
     <use xlink:href="#ArialMT-6f" transform="translate(611.279297 0)"/>
     <use xlink:href="#ArialMT-6e" transform="translate(666.894531 0)"/>
     <use xlink:href="#ArialMT-20" transform="translate(722.509766 0)"/>
     <use xlink:href="#ArialMT-28" transform="translate(750.292969 0)"/>
     <use xlink:href="#ArialMT-6e" transform="translate(783.59375 0)"/>
     <use xlink:href="#ArialMT-20" transform="translate(839.208984 0)"/>
     <use xlink:href="#ArialMT-3d" transform="translate(866.992188 0)"/>
     <use xlink:href="#ArialMT-20" transform="translate(925.390625 0)"/>
     <use xlink:href="#ArialMT-38" transform="translate(953.173828 0)"/>
     <use xlink:href="#ArialMT-33" transform="translate(1008.789062 0)"/>
     <use xlink:href="#ArialMT-38" transform="translate(1064.404297 0)"/>
     <use xlink:href="#ArialMT-29" transform="translate(1120.019531 0)"/>
    </g>
   </g>
  </g>
 </g>
 <defs>
  <clipPath id="pb9d109b4f9">
   <rect x="67.98125" y="16.879687" width="167.4" height="194.04"/>
  </clipPath>
  <clipPath id="p57d0ffaf88">
   <rect x="302.34125" y="16.879687" width="167.4" height="194.04"/>
  </clipPath>
 </defs>
</svg>
